<?xml version="1.0" encoding="utf-8"?>
<!-- Generator: Adobe Illustrator 16.0.0, SVG Export Plug-In . SVG Version: 6.00 Build 0)  -->
<!DOCTYPE svg PUBLIC "-//W3C//DTD SVG 1.0//EN" "http://www.w3.org/TR/2001/REC-SVG-20010904/DTD/svg10.dtd">
<svg version="1.0" id="Layer_1" xmlns="http://www.w3.org/2000/svg" xmlns:xlink="http://www.w3.org/1999/xlink" x="0px" y="0px"
	 width="540px" height="300px" viewBox="0 0 540 300" enable-background="new 0 0 540 300" xml:space="preserve">
<g>
	<path fill-rule="evenodd" clip-rule="evenodd" fill="#C7CAD1" d="M270.467,301c-88.474,0-176.947-0.022-265.42,0.089
		c-3.32,0.004-4.152-0.521-4.148-4.04c0.127-97.305,0.135-194.609-0.02-291.913C0.873,1.213,2.07,0.929,5.362,0.93
		C182.477,1.009,359.59,1.012,536.704,0.914c3.477-0.002,4.409,0.552,4.403,4.288c-0.136,97.137-0.139,194.275,0.004,291.413
		c0.006,4.002-1.186,4.471-4.724,4.466C447.747,300.978,359.107,301,270.467,301z"/>
	<path fill-rule="evenodd" clip-rule="evenodd" fill="#FEFEFE" d="M226.001,154.005c0-10.322-0.05-20.646,0.016-30.968
		c0.055-8.699,5.316-13.995,14.011-14.019c20.646-0.055,41.291-0.055,61.936,0c8.699,0.023,13.995,5.314,14.019,14.009
		c0.055,20.646,0.055,41.291,0,61.936c-0.023,8.699-5.314,13.995-14.009,14.019c-20.646,0.055-41.291,0.055-61.936,0
		c-8.699-0.023-13.965-5.314-14.021-14.009C225.951,174.65,226.001,164.327,226.001,154.005z M236,178.207
		c5.047-5.361,9.048-9.559,12.987-13.811c6.601-7.123,7.792-7.104,14.1,0.406c0.214,0.255,0.454,0.5,0.609,0.788
		c2.24,4.179,4.397,3.172,7.146,0.272c5.721-6.033,11.703-11.819,17.598-17.687c5.485-5.458,6.839-5.457,12.191-0.157
		c1.469,1.455,2.989,2.859,5.366,5.125c0-10.237-0.106-19.169,0.044-28.096c0.077-4.589-2.041-6.117-6.396-6.093
		c-18.962,0.105-37.926,0.027-56.889,0.055c-5.799,0.009-6.729,0.924-6.744,6.633c-0.037,13.308-0.013,26.615-0.013,39.923
		C236,169.334,236,173.103,236,178.207z"/>
	<path fill-rule="evenodd" clip-rule="evenodd" fill="#FEFEFE" d="M265.96,136.975c0.143,6.403-4.707,11.746-10.893,12.001
		c-5.654,0.232-11.796-5.483-12.024-11.19c-0.215-5.378,5.117-10.649,10.908-10.782C260.519,126.852,265.833,131.265,265.96,136.975
		z"/>
</g>
</svg>
